<svg width="330" height="400" viewBox="0 0 330 400" fill="none" xmlns="http://www.w3.org/2000/svg">
<path d="M40.8944 29.8686C-64.8306 123.258 71.2312 213.782 58.2718 315.828C52.5101 361.197 70.814 404.569 130.698 399.612C203.676 393.572 177.185 323.668 192.468 277.13C218.765 197.051 380.538 215.755 313.48 92.4046C270.684 13.6874 113.662 -34.4087 40.8944 29.8686Z" fill="url(#paint0_linear)"/>
<g opacity="0.1">
<path opacity="0.1" d="M271.891 150.999C271.347 150.999 270.808 151.018 270.269 151.04C256.576 106.023 214.738 73.2624 165.244 73.2624C157.669 73.2624 150.272 74.0295 143.128 75.4913C137.38 61.4186 123.563 51.4983 107.423 51.4983C86.1257 51.4983 68.8608 68.7631 68.8608 90.06C68.8608 99.8834 72.5405 108.844 78.5882 115.653C64.1069 134.251 55.478 157.63 55.478 183.027C55.478 205.769 70.9296 241.795 90.2351 277.937C77.5671 284.257 68.8608 297.336 68.8608 312.455C68.8608 333.752 86.1257 351.017 107.423 351.017C115.494 351.017 122.983 348.533 129.176 344.294C137.96 358.209 146.015 370.429 152.272 379.737C158.468 388.954 172.02 388.954 178.216 379.737C200.064 347.239 243.798 279.294 264.139 227.343C266.643 227.854 269.235 228.123 271.89 228.123C293.187 228.123 310.452 210.858 310.452 189.561C310.452 168.264 293.188 150.999 271.891 150.999Z" fill="#2F80ED"/>
</g>
<path d="M275.011 164.278C275.011 211.903 207.266 317.779 178.217 360.987C172.021 370.205 158.469 370.205 152.273 360.987C123.225 317.779 55.4797 211.903 55.4797 164.278C55.4797 103.656 104.623 54.5125 165.245 54.5125C225.867 54.5125 275.011 103.656 275.011 164.278Z" fill="white"/>
<path d="M165.245 244.03C209.291 244.03 244.997 208.324 244.997 164.278C244.997 120.232 209.291 84.5256 165.245 84.5256C121.199 84.5256 85.4922 120.232 85.4922 164.278C85.4922 208.324 121.199 244.03 165.245 244.03Z" fill="#2F80ED"/>
<path d="M146.603 231.663C146.138 233.902 146.876 238.564 146.884 241.904C138.336 239.889 130.323 236.504 123.084 231.985C120.412 224.937 121.758 217.887 121.497 209.718C121.126 198.193 114.156 197.629 105.648 192.434C98.5562 188.099 92.0429 183.719 86.7905 178.678C85.9382 174.008 85.4937 169.196 85.4937 164.278C85.4937 148.361 90.1554 133.536 98.1937 121.089C99.5921 122.887 101.636 123.45 105.078 123.605C107.203 121.456 109.446 120.938 111.812 122.051C112.146 122.822 112.48 123.593 112.815 124.364C112.627 126.076 113.105 127.569 114.242 128.846C116.705 129.221 119.091 128.919 121.404 127.94C124.887 127.235 128.729 124.902 132.289 124.788C146.791 124.327 137.55 134.36 133.162 140.795C128.149 148.152 125.894 158.572 116.608 161.986C109.817 164.482 101.542 161.076 101.229 171.773C100.98 180.212 110.764 189.167 118.141 191.704C127.17 194.803 138.79 190.207 147.566 195.517C154.161 199.505 152.362 212.548 150.735 220.244C149.902 224.176 147.439 227.622 146.603 231.663Z" fill="white"/>
<path d="M157.231 103.63C155.225 106.607 152.117 108.968 151.155 112.423C150.127 116.105 151.607 120.709 148.912 123.418C144.74 120.596 142.925 115.204 143.104 110.176C143.214 107.194 143.662 103.594 141.26 101.823C139.131 100.253 135.302 100.698 134.555 98.1569C134.237 97.0725 134.723 95.8569 134.344 94.792C133.932 93.6217 132.655 93.0428 131.717 92.2311C131.636 92.1616 131.558 92.0842 131.484 92.003C140.326 87.8678 150.048 85.3061 160.293 84.678C160.661 91.1944 160.877 98.2217 157.231 103.63Z" fill="white"/>
<path d="M244.996 164.278C244.996 196.533 225.848 224.315 198.304 236.876C199.327 233.829 201.313 230.926 202.81 228.013C205.441 222.895 206.676 217.169 207.349 211.455C207.708 208.405 207.59 204.665 204.943 203.107C203.564 202.295 201.872 202.34 200.273 202.315C197.447 202.271 194.629 201.928 191.877 201.292C188.924 200.607 185.885 199.481 183.989 197.112C181.159 193.572 181.717 188.498 182.419 184.02C183.141 179.42 183.862 174.823 184.584 170.223C185.176 166.443 186.26 162.014 189.829 160.619C192.272 159.664 194.996 160.541 197.614 160.737C205.309 161.304 212.459 155.839 220.162 156.247C221.512 156.32 222.891 156.569 224.192 156.214C225.126 155.957 225.958 155.398 226.663 154.733C230.713 150.944 230.578 144.509 229.396 139.089C228.878 136.712 228.164 134.265 226.512 132.478C224.856 130.687 222.01 129.79 219.914 131.034C216.545 133.033 216.9 139.032 213.18 140.267C209.898 141.352 206.504 137.523 203.197 138.526C198.58 139.92 200.318 148 196.211 150.524C194.082 151.829 191.309 151.013 189.091 149.876C186.334 148.456 183.593 146.226 183.234 143.151C182.757 139.048 186.607 135.838 190.187 133.779C193.768 131.719 197.924 129.423 198.736 125.377C199.009 124.031 198.859 122.629 199.148 121.287C199.98 117.383 204.091 115.173 207.891 113.958C211.692 112.742 215.917 111.808 218.454 108.726C219.066 107.983 219.547 107.148 220.02 106.307C235.4 120.852 244.996 141.444 244.996 164.278Z" fill="white"/>
<path d="M165.245 247.937C119.115 247.937 81.5859 210.408 81.5859 164.278C81.5859 118.148 119.115 80.6194 165.245 80.6194C211.374 80.6194 248.903 118.148 248.903 164.278C248.903 210.408 211.374 247.937 165.245 247.937ZM165.245 88.4319C123.423 88.4319 89.3984 122.456 89.3984 164.278C89.3984 206.1 123.423 240.124 165.245 240.124C207.066 240.124 241.091 206.099 241.091 164.278C241.091 122.457 207.066 88.4319 165.245 88.4319Z" fill="#2F80ED"/>
<path d="M271.891 209.372C293.188 209.372 310.453 192.108 310.453 170.811C310.453 149.514 293.188 132.249 271.891 132.249C250.594 132.249 233.33 149.514 233.33 170.811C233.33 192.108 250.594 209.372 271.891 209.372Z" fill="white"/>
<path d="M285.237 166.147C285.237 158.788 279.25 152.802 271.891 152.802C264.533 152.802 258.546 158.788 258.546 166.147C258.546 169.776 260.006 173.067 262.365 175.476C260.007 177.884 258.546 181.176 258.546 184.805C258.546 187.023 260.344 188.821 262.562 188.821C264.78 188.821 266.579 187.023 266.579 184.805C266.579 181.876 268.962 179.492 271.891 179.492C274.82 179.492 277.204 181.875 277.204 184.805C277.204 187.023 279.002 188.821 281.22 188.821C283.438 188.821 285.237 187.023 285.237 184.805C285.237 181.176 283.776 177.884 281.417 175.476C283.776 173.067 285.237 169.776 285.237 166.147ZM271.891 160.834C274.82 160.834 277.204 163.218 277.204 166.147C277.204 169.076 274.82 171.459 271.891 171.459C268.962 171.459 266.579 169.076 266.579 166.147C266.579 163.218 268.962 160.834 271.891 160.834Z" fill="#2F80ED"/>
<path d="M107.423 331.62C128.72 331.62 145.985 314.355 145.985 293.058C145.985 271.761 128.72 254.496 107.423 254.496C86.1262 254.496 68.8616 271.761 68.8616 293.058C68.8616 314.355 86.1262 331.62 107.423 331.62Z" fill="white"/>
<path d="M120.769 288.394C120.769 281.035 114.782 275.048 107.423 275.048C100.065 275.048 94.0781 281.035 94.0781 288.394C94.0781 292.023 95.5383 295.314 97.8977 297.723C95.5391 300.13 94.0781 303.423 94.0781 307.051C94.0781 309.269 95.8766 311.068 98.0945 311.068C100.312 311.068 102.111 309.269 102.111 307.051C102.111 304.123 104.494 301.739 107.423 301.739C110.352 301.739 112.736 304.123 112.736 307.051C112.736 309.269 114.534 311.068 116.752 311.068C118.97 311.068 120.769 309.269 120.769 307.051C120.769 303.423 119.309 300.131 116.949 297.723C119.308 295.314 120.769 292.023 120.769 288.394ZM107.423 283.081C110.352 283.081 112.736 285.464 112.736 288.394C112.736 291.323 110.352 293.706 107.423 293.706C104.495 293.706 102.111 291.323 102.111 288.394C102.111 285.464 104.494 283.081 107.423 283.081Z" fill="#2F80ED"/>
<path d="M107.423 109.223C128.72 109.223 145.985 91.9586 145.985 70.6616C145.985 49.3645 128.72 32.0999 107.423 32.0999C86.1262 32.0999 68.8616 49.3645 68.8616 70.6616C68.8616 91.9586 86.1262 109.223 107.423 109.223Z" fill="white"/>
<path d="M120.769 65.9977C120.769 58.6391 114.782 52.6523 107.423 52.6523C100.065 52.6523 94.0781 58.6391 94.0781 65.9977C94.0781 69.6273 95.5383 72.918 97.8977 75.3266C95.5391 77.7344 94.0781 81.0258 94.0781 84.6555C94.0781 86.8734 95.8766 88.6719 98.0945 88.6719C100.312 88.6719 102.111 86.8734 102.111 84.6555C102.111 81.7266 104.494 79.343 107.423 79.343C110.352 79.343 112.736 81.7258 112.736 84.6555C112.736 86.8734 114.534 88.6719 116.752 88.6719C118.97 88.6719 120.769 86.8734 120.769 84.6555C120.769 81.0266 119.309 77.7352 116.949 75.3266C119.308 72.9188 120.769 69.6273 120.769 65.9977ZM107.423 60.6852C110.352 60.6852 112.736 63.068 112.736 65.9977C112.736 68.9266 110.352 71.3102 107.423 71.3102C104.495 71.3102 102.111 68.9266 102.111 65.9977C102.111 63.0687 104.494 60.6852 107.423 60.6852Z" fill="#2F80ED"/>
<path d="M35.8274 110.215C33.6704 110.215 31.9211 108.466 31.9211 106.308C31.9211 103.723 29.8188 101.621 27.2336 101.621C25.0766 101.621 23.3274 99.8724 23.3274 97.7146C23.3274 95.5568 25.0766 93.8083 27.2336 93.8083C29.8188 93.8083 31.9211 91.706 31.9211 89.1208C31.9211 86.963 33.6704 85.2146 35.8274 85.2146C37.9844 85.2146 39.7336 86.963 39.7336 89.1208C39.7336 91.706 41.836 93.8083 44.4211 93.8083C46.5782 93.8083 48.3274 95.5568 48.3274 97.7146C48.3274 99.8724 46.5782 101.621 44.4211 101.621C41.836 101.621 39.7336 103.723 39.7336 106.308C39.7336 108.466 37.9844 110.215 35.8274 110.215Z" fill="#256BCA"/>
<path d="M254.171 336.174C252.013 336.174 250.265 334.426 250.265 332.268C250.265 329.683 248.162 327.58 245.577 327.58C243.419 327.58 241.671 325.832 241.671 323.674C241.671 321.516 243.419 319.768 245.577 319.768C248.162 319.768 250.265 317.665 250.265 315.08C250.265 312.923 252.013 311.174 254.171 311.174C256.329 311.174 258.077 312.923 258.077 315.08C258.077 317.665 260.179 319.768 262.765 319.768C264.922 319.768 266.671 321.516 266.671 323.674C266.671 325.832 264.922 327.58 262.765 327.58C260.179 327.58 258.077 329.683 258.077 332.268C258.077 334.425 256.328 336.174 254.171 336.174Z" fill="#256BCA"/>
<path d="M17.5579 161.152C15.4008 161.152 13.6516 159.404 13.6516 157.246C13.6516 154.661 11.5493 152.559 8.96411 152.559C6.80708 152.559 5.05786 150.81 5.05786 148.652C5.05786 146.495 6.80708 144.746 8.96411 144.746C11.5493 144.746 13.6516 142.644 13.6516 140.059C13.6516 137.901 15.4008 136.152 17.5579 136.152C19.7149 136.152 21.4641 137.901 21.4641 140.059C21.4641 142.644 23.5665 144.746 26.1516 144.746C28.3086 144.746 30.0579 146.495 30.0579 148.652C30.0579 150.81 28.3086 152.559 26.1516 152.559C23.5665 152.559 21.4641 154.661 21.4641 157.246C21.4641 159.404 19.7149 161.152 17.5579 161.152Z" fill="#256BCA"/>
<path d="M271.89 295.581C270.891 295.581 269.89 295.2 269.129 294.437L260.535 285.843C259.009 284.318 259.009 281.844 260.535 280.319L269.129 271.726C270.653 270.2 273.128 270.2 274.652 271.726L283.246 280.319C284.772 281.844 284.772 284.318 283.246 285.843L274.652 294.437C273.89 295.199 272.89 295.581 271.89 295.581ZM268.822 283.081L271.891 286.151L274.961 283.081L271.891 280.012L268.822 283.081Z" fill="#256BCA"/>
<path d="M252.46 67.0115C251.461 67.0115 250.46 66.6303 249.698 65.867L241.105 57.2732C239.579 55.7482 239.579 53.2748 241.105 51.7498L249.698 43.1561C251.223 41.6303 253.698 41.6303 255.222 43.1561L263.816 51.7498C265.341 53.2748 265.341 55.7482 263.816 57.2732L255.222 65.867C254.46 66.6303 253.46 67.0115 252.46 67.0115ZM249.391 54.5115L252.461 57.5811L255.53 54.5115L252.461 51.442L249.391 54.5115Z" fill="#256BCA"/>
<path d="M149.031 363.166C152.668 368.576 158.729 371.806 165.244 371.806C171.76 371.806 177.822 368.576 181.459 363.166C204.558 328.806 245.987 264.087 266.618 212.94C268.347 213.155 270.104 213.279 271.891 213.279C295.308 213.279 314.359 194.228 314.359 170.812C314.359 147.804 295.963 129.023 273.109 128.374C266.191 107.566 253.484 89.3108 236.255 75.5101C218.332 61.1538 196.772 52.6546 173.905 50.9304C171.755 50.789 169.879 52.3804 169.716 54.5319C169.555 56.6835 171.166 58.5585 173.318 58.721C194.607 60.3257 214.681 68.2397 231.37 81.6069C246.885 94.0335 258.47 110.329 265.044 128.902C244.873 132.187 229.423 149.725 229.423 170.811C229.423 189.689 241.808 205.722 258.876 211.23C249.32 234.574 226.423 282.276 174.975 358.806C172.759 362.102 169.212 363.993 165.244 363.993C161.276 363.993 157.729 362.102 155.513 358.806C152.492 354.312 149.431 349.704 146.416 345.109C145.232 343.305 142.811 342.801 141.007 343.985C139.203 345.169 138.701 347.591 139.884 349.394C142.916 354.016 145.994 358.648 149.031 363.166ZM237.236 170.812C237.236 151.702 252.782 136.156 271.891 136.156C291 136.156 306.546 151.702 306.546 170.812C306.546 189.92 291 205.466 271.891 205.466C252.782 205.466 237.236 189.92 237.236 170.812Z" fill="#2F80ED"/>
<path d="M64.9553 293.058C64.9553 316.475 84.0061 335.526 107.423 335.526C130.84 335.526 149.891 316.474 149.891 293.058C149.891 269.64 130.84 250.59 107.423 250.59C101.871 250.59 96.5694 251.672 91.7038 253.618C70.2624 212.917 59.385 182.861 59.385 164.277C59.385 141.838 66.2788 120.537 79.3202 102.462C86.8139 109.093 96.6538 113.129 107.423 113.129C130.84 113.129 149.89 94.0779 149.89 70.6615C149.89 47.2443 130.84 28.1943 107.423 28.1943C84.0053 28.1943 64.9545 47.2451 64.9545 70.6615C64.9545 80.4475 68.2905 89.4631 73.8725 96.6529C59.2803 116.325 51.5725 139.669 51.5725 164.277C51.5725 184.122 62.7381 215.374 84.7483 257.176C72.8655 264.713 64.9553 277.975 64.9553 293.058ZM107.423 36.0068C126.532 36.0068 142.079 51.5529 142.079 70.6615C142.079 89.7709 126.533 105.317 107.423 105.317C88.3147 105.317 72.7678 89.7709 72.7678 70.6615C72.7678 51.5529 88.3139 36.0068 107.423 36.0068ZM107.423 258.402C126.532 258.402 142.079 273.948 142.079 293.058C142.079 312.167 126.533 327.713 107.423 327.713C88.3147 327.713 72.7678 312.167 72.7678 293.058C72.7678 273.948 88.3139 258.402 107.423 258.402Z" fill="#2F80ED"/>
<defs>
<linearGradient id="paint0_linear" x1="0.369444" y1="200" x2="329.63" y2="200" gradientUnits="userSpaceOnUse">
<stop stop-color="#2F80ED" stop-opacity="0.05"/>
<stop offset="1" stop-color="#2F80ED" stop-opacity="0.4"/>
</linearGradient>
</defs>
</svg>
